<svg width="56" height="56" viewBox="0 0 56 56" fill="none" xmlns="http://www.w3.org/2000/svg">
<path fill-rule="evenodd" clip-rule="evenodd" d="M56 28C56 12.536 43.464 0 28 0C12.536 0 0 12.536 0 28C0 43.464 12.536 56 28 56C43.464 56 56 43.464 56 28Z" fill="black"/>
<path fill-rule="evenodd" clip-rule="evenodd" d="M12.0712 16.7123C10.7142 16.7123 9.9083 17.3712 9.65264 18.6887C9.39669 20.006 10.1245 21.4513 11.8353 23.0245C12.8725 23.8406 12.6959 24.229 11.3046 24.1898H5.43483V27.3603H14.7257C16.2594 27.1049 17.0409 26.3182 17.0706 25.0006C17.1002 23.6831 16.3184 22.3264 14.7257 20.9301C13.8362 20.1928 14.023 19.8439 15.2862 19.8831H20.7402V27.36H24.2061V19.8831H27.5834V16.7123H12.0712ZM26.9248 27.36L30.4273 16.7123H35.7146L39.2764 27.36H35.25L34.5792 25.4428H31.4157L30.7443 27.36H26.9248ZM33.0824 19.0719L31.556 23.29H34.4909L33.0824 19.0719Z" fill="white"/>
<path fill-rule="evenodd" clip-rule="evenodd" d="M39.1192 27.36V16.7123H46.0502C46.9058 16.7911 47.6089 17.0168 48.1594 17.3907C48.7102 17.7643 49.1132 18.2657 49.3691 18.895C49.5655 19.8389 49.5751 20.5664 49.3982 21.0777C49.2213 21.589 48.9119 22.0167 48.4694 22.361C48.0269 22.7049 47.3924 22.9754 46.5673 23.1718L47.3628 24.1898H52.5655V27.3603H46.3454L42.968 23.8429V27.3603L39.1192 27.36ZM42.968 19.3668V21.3281H45.6525C45.7948 21.3281 45.9497 21.2756 46.1167 21.1698C46.2841 21.0641 46.3727 20.7977 46.3829 20.3697C46.3579 19.9618 46.2579 19.6925 46.0839 19.5623C45.909 19.4322 45.7629 19.3671 45.6452 19.3671L42.968 19.3668ZM13.2659 34.7753L12.145 39.288H8.6791L5.43483 28.6397H8.90048L10.3604 33.2416L11.6285 28.6397H14.8141L16.2966 33.2416L17.2847 28.6397H20.7503L18.081 39.288H14.6151L13.2659 34.7753ZM19.16 39.288L22.6625 28.6397H27.9498L31.5116 39.288H27.4849L26.8141 37.3705H23.6509L22.9795 39.288H19.16ZM25.3173 30.9997L23.7909 35.2175H26.7258L25.3173 30.9997Z" fill="white"/>
<path fill-rule="evenodd" clip-rule="evenodd" d="M48.5653 31.8105L52.5422 31.7939V28.6232L45.35 28.6397C43.9927 28.6397 43.1871 29.2986 42.9311 30.6162C42.6758 31.9337 43.4032 33.379 45.1141 34.9519C46.1513 35.7686 45.9744 36.1564 44.5831 36.1175H39.5983L38.8017 35.0995C39.6279 34.9031 40.2621 34.6326 40.7049 34.2887C41.1468 33.9441 41.4567 33.517 41.6337 33.0057C41.81 32.4938 41.8004 31.7663 41.604 30.8227C41.3487 30.1934 40.9451 29.6923 40.3949 29.3184C39.8441 28.9445 39.1416 28.7188 38.2857 28.6397H31.3538V39.288H35.2032V35.7706L38.5806 39.288H48.0045C49.5388 39.032 50.3197 38.2456 50.3491 36.9281C50.3784 35.6105 49.5972 34.2538 48.0045 32.8578C47.1153 32.1205 47.3015 31.7713 48.5653 31.8105ZM38.3519 33.0975C38.1846 33.203 38.0303 33.2564 37.8871 33.2564H35.2032V31.2948H37.8798C37.9984 31.2948 38.1442 31.3596 38.3185 31.49C38.4934 31.6205 38.5931 31.8895 38.6175 32.2974C38.6073 32.7254 38.5196 32.9921 38.3519 33.0975Z" fill="white"/>
</svg>
